#!OML:ASF F:\VICON\USERDATA\INSTALL\rory3\rory3.ASF
:FULLY-SPECIFIED
:DEGREES
73
root 0.19021867375607363 18.258686063223532 42.91232703585882 4.741881832678999 -4.628749814498367 -2.658638256569581
lfemur -0.059396760853758224 0.550979397451071 -22.252716363426863
ltibia 42.96477215953608
lfoot -3.1575106834980327 -5.908379559645234
ltoes -30.332397821196558
rfemur -27.590157542725656 8.035052150071996 27.576757675152788
rtibia 54.44404552512121
rfoot -0.16730924190627494 3.181348486235799
rtoes -10.794195148906567
lowerback 13.948605961037144 1.02215054980876 -0.15350651215770972
upperback -1.611322261083023 1.2398875260796398 1.872182423917638
thorax -10.538343240980799 0.7911109374283023 4.264890031410656
lowerneck -21.67726106357414 -2.790773028919123 -1.9108489262241521
upperneck 14.718647977709146 -3.6386055395722177 2.3284794774210256
head 8.182186411565073 -1.53799939966191 0.5708123115388796
lclavicle -1.729673001410975e-15 1.7830201856630726e-15
lhumerus -35.31315295038992 -14.800497153040839 95.10931229318965
lradius 120.73120018141863
lwrist 35.17746653142036
lhand -23.944031870482707 1.755059781634502
lfingers 7.12502
lthumb 2.0256119856216883 31.424782996678772
rclavicle -1.7274298503343038e-15 1.7856048320577322e-15
rhumerus -54.431101526676194 8.445781303110719 -95.60199292218823
rradius 109.85839558660425
rwrist -10.490702268924611
rhand -15.145321278169689 39.28253046929567
rfingers 7.12502
rthumb 10.172352082160849 10.335579055708354
74
root 0.1927016056791143 18.354533752379 44.00031095615146 5.158085684326696 -5.4388630485406395 -3.0558795570442396
lfemur 1.7296892822208623 0.665456348639242 -21.84905108695223
ltibia 40.3226868251198
lfoot 3.463179749677439 -8.556914232072941
ltoes -29.436225617147592
rfemur -28.449786502626736 7.9754824006748475 28.079530344382615
rtibia 53.74398702092646
rfoot 2.442942734689661 1.8206285986689226
rtoes -13.071916441901415
lowerback 13.579766377616854 0.8012584466903636 0.2192961918583387
upperback -1.799563799795825 1.0437189409797551 2.064701795096341
thorax -10.487577404335358 0.7216190180914425 4.266755212395301
lowerneck -21.493077739762892 -2.5786447654843476 -2.0167210099660817
upperneck 14.86960740081894 -3.2780912783522336 2.163309154046209
head 8.183283258557262 -1.3709919026069508 0.5581547172749055
lclavicle -1.7301923262351406e-15 1.782643214446605e-15
lhumerus -35.52619417103571 -14.939556625948526 94.92619634022019
lradius 121.1567299464295
lwrist 34.97879463857413
lhand -24.039093049587414 1.6600247201607319
lfingers 7.12502
lthumb 1.9196489461551434 31.34211684144783
rclavicle -1.7269834168964395e-15 1.7859702864919155e-15
rhumerus -54.169223055153864 8.581709367367623 -95.37827591284483
rradius 109.65611664345379
rwrist -10.448007302517466
rhand -15.137138346436213 39.20002520024374
rfingers 7.12502
rthumb 10.222038937512187 10.338329824286197
75
root 0.20290147618507778 18.422972589854126 44.71620662102386 5.23239013420105 -5.797534714502974 -2.410008910245141
lfemur 3.1176935518527937 0.09299113824810107 -22.74761221420523
ltibia 38.07852732786055
lfoot 10.20177587664412 -10.639670057182801
ltoes -25.492034597134065
rfemur -28.79694038986529 6.919722041873607 27.594682926674025
rtibia 52.681081788275335
rfoot 4.743693348408374 0.06651067260402588
rtoes -13.96298063842847
lowerback 13.460629468086204 0.5795503106527188 -0.2794498549150235
upperback -1.9586303082548007 0.6903348820074268 2.070010855914094
thorax -10.398897157155055 0.5845766937757326 4.204254771213852
lowerneck -21.548070757193834 -2.3745003775865197 -1.9858899226732991
upperneck 15.139928371738113 -2.9523484631502814 1.9224958990403302
head 8.201684747116014 -1.2342286253536945 0.5051298308718635
lclavicle -1.7300221202028781e-15 1.782766533941897e-15
lhumerus -36.11012644770833 -15.435178182340323 94.8420647384221
lradius 121.33346959640579
lwrist 34.77040930719378
lhand -24.24663106193131 1.3737510723450426
lfingers 7.12502
lthumb 1.7342857480249627 31.11061094479692
rclavicle -1.7286880384345935e-15 1.7847427625424563e-15
rhumerus -53.96088249442887 8.5350470232643 -95.18390848396577
rradius 109.58232633336699
rwrist -10.34841534150689
rhand -15.149796473414789 39.121277897048344
rfingers 7.12502
rthumb 10.295529665676685 10.318427015053459
76
root 0.19562530146762422 18.4410677907303 45.65539182481451 5.335461489320627 -6.015443738295962 -2.0966757922733006
lfemur 3.801911502171544 -0.5424689202099406 -23.31650249016217
ltibia 37.368320474432196
lfoot 15.813492269669446 -11.995499881037883
ltoes -20.342310709515566
rfemur -28.77684783261513 5.986245339949798 27.449436341580025
rtibia 51.03594732394245
rfoot 6.495320503260113 -2.000332435553881
rtoes -13.430531825959669
lowerback 13.443790622722565 0.4006943013142568 -0.5325922705912554
upperback -2.097761769719193 0.3964787906231064 2.000314161663552
thorax -10.32719093193975 0.459738819914248 4.119389814059174
lowerneck -21.691651376029085 -2.2793384526343754 -1.9446575451836603
upperneck 15.404072488974217 -2.7958257158523443 1.7586348572310309
head 8.216831539693604 -1.1778690806603898 0.4746453772988606
lclavicle -1.7294718671033581e-15 1.783165646253111e-15
lhumerus -36.62389986643273 -16.06761964813692 94.88778408895926
lradius 121.1991245294663
lwrist 34.68622522600782
lhand -24.478101621247877 1.0426968102706418
lfingers 7.12502
lthumb 1.5350987054234932 30.79792998493091
rclavicle -1.7299028146250695e-15 1.78389241701781e-15
rhumerus -53.80886107083157 8.377650470177146 -95.00468249247359
rradius 109.62025849630616
rwrist -10.211761375568344
rhand -15.183291109868248 39.07689858076051
rfingers 7.12502
rthumb 10.370717956968882 10.260704642523766
77
root 0.17293803112033765 18.411727353338218 46.52685755064436 5.1441184908094 -6.213409383024674 -1.5087365341781394
lfemur 3.9224019082064583 -1.2892598850554626 -24.216547886825392
ltibia 38.42032294377058
lfoot 19.61550367474265 -12.785222384607273
ltoes -15.545609164427624
rfemur -28.45041371049717 5.119063014461759 27.114016550327644
rtibia 48.94753364798184
rfoot 7.5692752608285865 -4.301360440197345
rtoes -11.47936185739008
lowerback 13.535876888461589 0.29598412593444867 -0.9855049093543011
upperback -2.0507115764672736 0.16311719000006142 1.865113407389945
thorax -10.171983191635523 0.3710271987191109 4.011776237682397
lowerneck -21.942891809435743 -2.237559569994035 -1.9097637001613939
upperneck 15.586551763255896 -2.727774174581558 1.684480769663878
head 8.230372808938622 -1.1603177130875133 0.47743585281482925
lclavicle -1.728472745897959e-15 1.7838902806223614e-15
lhumerus -36.90594496937608 -16.68108708325877 95.10856634520957
lradius 120.6989110547181
lwrist 34.784788894805544
lhand -24.646231934025117 0.7998253918762095
lfingers 7.12502
lthumb 1.3985468141283939 30.53201364905658
rclavicle -1.7302240983226845e-15 1.7837236292876865e-15
rhumerus -53.6160723155793 8.231396323878297 -94.82176405108385
rradius 109.72724353847299
rwrist -10.049982679794773
rhand -15.20934335703037 39.06987274514488
rfingers 7.12502
rthumb 10.306383578782551 10.141815945865018
78
root 0.18288613998659722 18.34681784347272 47.640439456710006 4.259823109893614 -5.321590246636451 -1.1709325414579046
lfemur 3.7620167375458475 -2.9134158760719338 -24.695760160777926
ltibia 40.93541242716831
lfoot 21.696336014725766 -13.272455856697508
ltoes -11.923249536976648
rfemur -27.04502504795319 3.299142081714114 27.02055070843786
rtibia 46.50953136934265
rfoot 8.126928750392503 -6.667888479514396
rtoes -8.356224480459378
lowerback 13.708916090350105 -0.0757269638221727 -0.9150756468416545
upperback -1.7492879888729376 -0.38442092578076537 1.7062204878072216
thorax -9.838835328657705 0.11061712347982355 3.964655184501854
lowerneck -22.211018452051498 -2.2402623573300304 -1.94735625719838
upperneck 15.600030075907949 -2.728956737137247 1.7257265796229793
head 8.21927592935827 -1.165688522134901 0.5279742722003544
lclavicle -1.7281416305235398e-15 1.7841303428006657e-15
lhumerus -37.46731599885432 -17.200361370403968 95.39928094406554
lradius 119.89417343418955
lwrist 34.82555049939362
lhand -24.732962209552518 0.6716829806863283
lfingers 7.12502
lthumb 1.3489468153482822 30.38424489204905
rclavicle -1.7288033264116808e-15 1.7847703185315906e-15
rhumerus -53.36719855372309 8.159692805192112 -94.6405182006529
rradius 109.89367054952938
rwrist -9.885091707539315
rhand -15.21104440707527 39.090238987568796
rfingers 7.12502
rthumb 10.22266671712149 9.994673890765963
79
root 0.18634925975574693 18.2298121966239 48.86030285510044 3.8031654270894464 -5.10462687495002 -0.6671417112626041
lfemur 3.163170440325933 -3.7567881118389206 -25.14190253852247
ltibia 44.349185617021604
lfoot 22.516094559203463 -13.80678752238335
ltoes -10.691927699697592
rfemur -25.961336564368526 2.3143429309117884 26.789632379917723
rtibia 43.79483386521199
rfoot 8.508570614019456 -8.843796655956123
rtoes -4.981734848705823
lowerback 13.561325001304548 -0.1258101111161818 -1.1910237572231737
upperback -1.5198533789727509 -0.5405526128793401 1.63655702685533
thorax -9.617153176514055 0.02498857917720443 3.889363664702421
lowerneck -22.179936520799277 -2.259893756996819 -2.0245470994307877
upperneck 15.356865925902586 -2.747093730139992 1.810879506570346
head 8.153776856956963 -1.1732992193749898 0.5925795110805577
lclavicle -1.728024406152946e-15 1.7842153612415835e-15
lhumerus -38.5980159334797 -17.62635141394754 95.67200488589681
lradius 118.88852500687057
lwrist 34.66215299058102
lhand -24.75150523163254 0.6632296741746535
lfingers 7.12502
lthumb 1.3613019186523825 30.316662891009063
rclavicle -1.7283659640504218e-15 1.7850765890727544e-15
rhumerus -53.1194796167864 8.128645125950055 -94.48648008749709
rradius 110.13503316795118
rwrist -9.752996786755727
rhand -15.234394902612662 39.09283292533242
rfingers 7.12502
rthumb 10.156468918031056 9.889143719716555
80
root 0.16653748056819714 18.061047983946224 49.80408010755042 3.569742057895015 -5.633717296273553 -1.8724701317189263
lfemur 1.9995421467209855 -3.2092016063756534 -23.425660352653257
ltibia 48.50035654747576
lfoot 22.503440289252076 -14.439917067400879
ltoes -10.706463673340135
rfemur -24.862133558087294 2.2522190540496645 28.34879672688845
rtibia 40.96095020125175
rfoot 8.89297176209862 -10.56185476955611
rtoes -2.470903821021627
lowerback 13.764079500218456 0.04021106427041343 -0.1453081563082672
upperback -1.5059171975679166 -0.15690872972570546 1.7871769573382776
thorax -9.614629188707898 0.19388464674459194 3.7923672363024354
lowerneck -21.887451848014702 -2.2750951951395373 -2.1033308818006824
upperneck 14.954936945118156 -2.755111355344838 1.8582697722449364
head 8.057343892908229 -1.1774764312280788 0.6326782178951007
lclavicle -1.72771208947859e-15 1.784441928917737e-15
lhumerus -39.91663223747179 -17.81701709857821 96.02135952805095
lradius 117.67176086710107
lwrist 34.47566061604454
lhand -24.750842761986096 0.7004889835985604
lfingers 7.12502
lthumb 1.4011192817303215 30.311755619356543
rclavicle -1.7282366994682595e-15 1.785176311766041e-15
rhumerus -52.82643535411643 8.097811103969946 -94.33561284430182
rradius 110.44099630045926
rwrist -9.655549449817387
rhand -15.292409850365893 39.06447204280766
rfingers 7.12502
rthumb 10.09841997158038 9.756698211766265
